<!-- Generated by IcoMoon.io -->
<svg version="1.1" xmlns="http://www.w3.org/2000/svg" width="20" height="20" viewBox="0 0 20 20">
<title>comments-o</title>
<path d="M7.857 4.286c-3.482 0-6.429 1.964-6.429 4.286 0 1.228 0.826 2.411 2.254 3.237l1.083 0.625-0.391 0.938c0.234-0.134 0.469-0.279 0.692-0.435l0.491-0.346 0.592 0.112c0.558 0.1 1.127 0.156 1.708 0.156 3.482 0 6.429-1.964 6.429-4.286s-2.946-4.286-6.429-4.286zM7.857 2.857c4.342 0 7.857 2.556 7.857 5.714s-3.516 5.714-7.857 5.714c-0.681 0-1.339-0.067-1.964-0.179-0.926 0.658-1.975 1.138-3.103 1.429-0.301 0.078-0.625 0.134-0.96 0.179h-0.033c-0.167 0-0.324-0.134-0.357-0.324v0c-0.045-0.212 0.1-0.346 0.223-0.491 0.435-0.491 0.926-0.926 1.306-1.853-1.808-1.049-2.969-2.667-2.969-4.475 0-3.158 3.516-5.714 7.857-5.714zM17.031 15.904c0.379 0.926 0.871 1.362 1.306 1.853 0.123 0.145 0.268 0.279 0.223 0.491v0c-0.045 0.201-0.212 0.346-0.391 0.324-0.335-0.045-0.658-0.1-0.96-0.179-1.127-0.29-2.176-0.77-3.103-1.429-0.625 0.112-1.283 0.179-1.964 0.179-2.020 0-3.873-0.558-5.268-1.473 0.324 0.022 0.658 0.045 0.982 0.045 2.4 0 4.665-0.692 6.395-1.942 1.864-1.362 2.891-3.203 2.891-5.201 0-0.58-0.089-1.15-0.257-1.696 1.886 1.038 3.114 2.69 3.114 4.554 0 1.819-1.161 3.426-2.969 4.475z"></path>
</svg>
