<!-- Generated by IcoMoon.io -->
<svg version="1.1" xmlns="http://www.w3.org/2000/svg" width="20" height="20" viewBox="0 0 20 20">
<title>expand</title>
<path d="M20 19.063v-18.125c0-0.517-0.421-0.938-0.938-0.938h-18.125c-0.517 0-0.938 0.421-0.938 0.938v5.625c0 0.172 0.14 0.313 0.313 0.313s0.313-0.14 0.313-0.313v-5.625c0-0.172 0.141-0.313 0.313-0.313h18.125c0.172 0 0.313 0.14 0.313 0.313v18.125c0 0.172-0.141 0.313-0.313 0.313h-5.625c-0.172 0-0.313 0.14-0.313 0.313s0.14 0.313 0.313 0.313h5.625c0.517 0 0.938-0.421 0.938-0.938zM0.938 8.125c-0.517 0-0.938 0.421-0.938 0.938v10c0 0.517 0.421 0.938 0.938 0.938h10c0.517 0 0.938-0.421 0.938-0.938v-10.496l4.375-4.375v4.246c0 0.172 0.14 0.313 0.313 0.313s0.313-0.14 0.313-0.313v-5c0-0.172-0.14-0.313-0.313-0.313h-5c-0.172 0-0.313 0.14-0.313 0.313s0.14 0.313 0.313 0.313h4.245l-4.375 4.375h-10.495zM11.25 19.063c0 0.172-0.141 0.313-0.313 0.313h-10c-0.172 0-0.313-0.14-0.313-0.313v-10c0-0.172 0.141-0.313 0.313-0.313h10.313v10.313z"></path>
</svg>
