<!-- Generated by IcoMoon.io -->
<svg version="1.1" xmlns="http://www.w3.org/2000/svg" width="20" height="20" viewBox="0 0 20 20">
<title>heart</title>
<path d="M14.375 1.25c-1.502 0-2.707 0.539-3.769 1.602-0.001 0.001-0.001 0.001-0.002 0.002h-0.001l-0.604 0.761-0.604-0.714c-0.001-0.001-0.001-0.001-0.002-0.002h-0.001c-1.062-1.063-2.266-1.648-3.769-1.648s-2.915 0.585-3.978 1.647c-1.062 1.063-1.647 2.475-1.647 3.977 0 1.501 0.584 2.914 1.646 3.976l7.467 7.529c0.234 0.237 0.554 0.37 0.887 0.37s0.653-0.133 0.888-0.37l7.466-7.529c1.061-1.062 1.646-2.474 1.646-3.976s-0.586-2.915-1.648-3.978c-1.063-1.063-2.475-1.647-3.977-1.647v0z"></path>
</svg>
