<!-- Generated by IcoMoon.io -->
<svg version="1.1" xmlns="http://www.w3.org/2000/svg" width="20" height="20" viewBox="0 0 20 20">
<title>key</title>
<path d="M11.583 12.167l-2.833 2.833h-1.875v1.875h-1.875v1.875h-3.125v-3.125l6.583-6.583c-0.215-0.577-0.333-1.202-0.333-1.855 0-2.934 2.378-5.313 5.313-5.313s5.313 2.378 5.313 5.313c0 2.934-2.378 5.313-5.313 5.313-0.652 0-1.277-0.118-1.855-0.333v0 0zM8.749 9.688l-6.249 6.249v2.188h1.875v-1.875h1.875v-1.875h2.188l2.499-2.499c-0.928-0.496-1.691-1.26-2.188-2.188v0 0zM18.125 7.188c0-2.589-2.099-4.688-4.688-4.688s-4.688 2.099-4.688 4.688c0 2.589 2.099 4.688 4.688 4.688s4.688-2.099 4.688-4.688v0 0zM16.875 5.625v0 0c0 1.036-0.839 1.875-1.875 1.875s-1.875-0.839-1.875-1.875c0-1.036 0.839-1.875 1.875-1.875s1.875 0.839 1.875 1.875zM16.25 5.625c0-0.69-0.56-1.25-1.25-1.25s-1.25 0.56-1.25 1.25c0 0.69 0.56 1.25 1.25 1.25s1.25-0.56 1.25-1.25v0 0z"></path>
</svg>
