<!-- Generated by IcoMoon.io -->
<svg version="1.1" xmlns="http://www.w3.org/2000/svg" width="20" height="20" viewBox="0 0 20 20">
<title>lock-stripes</title>
<path d="M4.375 14.375h11.875v-3.746c0-0.692-0.557-1.254-1.248-1.254h-9.378c-0.689 0-1.248 0.561-1.248 1.254v3.746zM4.375 15v1.25h0.469l0.938-1.25h-1.406zM4.375 16.875c0.002 0.691 0.558 1.25 1.248 1.25h9.378c0.688 0 1.246-0.559 1.248-1.25h-11.875zM16.25 16.25v-1.25h-0.469l-0.938 1.25h1.406zM5.625 8.75v-2.188c0-2.589 2.099-4.687 4.688-4.687 2.584 0 4.688 2.098 4.688 4.687v2.188c1.037 0.003 1.875 0.844 1.875 1.881v6.238c0 1.046-0.842 1.881-1.88 1.881h-9.364c-1.039 0-1.88-0.842-1.88-1.881v-6.238c0-1.044 0.839-1.878 1.875-1.881v0 0zM5.469 16.25h1.25l0.938-1.25h-1.25l-0.938 1.25zM7.344 16.25h1.25l0.938-1.25h-1.25l-0.938 1.25zM9.219 16.25h1.25l0.938-1.25h-1.25l-0.938 1.25zM11.094 16.25h1.25l0.938-1.25h-1.25l-0.938 1.25zM12.969 16.25h1.25l0.938-1.25h-1.25l-0.938 1.25zM6.25 8.75h0.625v-2.182c0-1.905 1.539-3.443 3.438-3.443 1.895 0 3.438 1.542 3.438 3.443v2.182h0.625v-2.192c0-2.241-1.823-4.058-4.063-4.058-2.244 0-4.063 1.818-4.063 4.058v2.192zM7.5 8.75h5.625v-2.187c0-1.554-1.262-2.813-2.813-2.813-1.553 0-2.813 1.256-2.813 2.813v2.187z"></path>
</svg>
